<svg xmlns="http://www.w3.org/2000/svg" viewBox="0 0 800 400">
  <defs>
    <linearGradient id="blueGrad" x1="0%" y1="0%" x2="0%" y2="100%">
      <stop offset="0%" style="stop-color:#3498db;stop-opacity:1" />
      <stop offset="100%" style="stop-color:#2980b9;stop-opacity:1" />
    </linearGradient>
    <linearGradient id="greenGrad" x1="0%" y1="0%" x2="0%" y2="100%">
      <stop offset="0%" style="stop-color:#27ae60;stop-opacity:1" />
      <stop offset="100%" style="stop-color:#1e8449;stop-opacity:1" />
    </linearGradient>
    <linearGradient id="orangeGrad" x1="0%" y1="0%" x2="0%" y2="100%">
      <stop offset="0%" style="stop-color:#e67e22;stop-opacity:1" />
      <stop offset="100%" style="stop-color:#d35400;stop-opacity:1" />
    </linearGradient>
    <filter id="shadow" x="-20%" y="-20%" width="140%" height="140%">
      <feDropShadow dx="2" dy="2" stdDeviation="3" flood-opacity="0.15"/>
    </filter>
    <marker id="arrow" markerWidth="10" markerHeight="10" refX="9" refY="3" orient="auto">
      <path d="M0,0 L0,6 L9,3 z" fill="#555"/>
    </marker>
  </defs>
  
  <rect width="800" height="400" fill="#f8f9fa"/>
  
  <text x="400" y="35" text-anchor="middle" font-family="Arial, sans-serif" font-size="22" font-weight="bold" fill="#333">NumPy Broadcasting</text>
  
  <g filter="url(#shadow)">
    <rect x="15" y="60" width="250" height="155" rx="8" fill="white" stroke="#3498db" stroke-width="2"/>
    <rect x="15" y="60" width="250" height="25" rx="8" fill="url(#blueGrad)"/>
    <rect x="15" y="78" width="250" height="7" fill="url(#blueGrad)"/>
    <text x="140" y="78" text-anchor="middle" font-family="Arial, sans-serif" font-size="11" font-weight="bold" fill="white">Skalar + Array</text>
    
    <rect x="55" y="100" width="30" height="25" fill="#e3f2fd" rx="3" stroke="#3498db"/>
    <text x="70" y="117" text-anchor="middle" font-family="Arial, sans-serif" font-size="11" fill="#2980b9">1</text>
    <rect x="89" y="100" width="30" height="25" fill="#e3f2fd" rx="3" stroke="#3498db"/>
    <text x="104" y="117" text-anchor="middle" font-family="Arial, sans-serif" font-size="11" fill="#2980b9">2</text>
    <rect x="123" y="100" width="30" height="25" fill="#e3f2fd" rx="3" stroke="#3498db"/>
    <text x="138" y="117" text-anchor="middle" font-family="Arial, sans-serif" font-size="11" fill="#2980b9">3</text>
    
    <text x="170" y="117" text-anchor="middle" font-family="Arial, sans-serif" font-size="16" fill="#333">+</text>
    
    <rect x="190" y="100" width="50" height="25" fill="#fef9e7" rx="3" stroke="#f39c12"/>
    <text x="215" y="117" text-anchor="middle" font-family="Arial, sans-serif" font-size="11" fill="#d68910">10</text>
    
    <path d="M 140 135 L 140 155" stroke="#555" stroke-width="2" fill="none" marker-end="url(#arrow)"/>
    <text x="185" y="150" font-family="Arial, sans-serif" font-size="9" fill="#666">Broadcast: 10→[10,10,10]</text>
    
    <rect x="55" y="165" width="30" height="25" fill="#d5f5e3" rx="3" stroke="#27ae60"/>
    <text x="70" y="182" text-anchor="middle" font-family="Arial, sans-serif" font-size="11" fill="#1e8449">11</text>
    <rect x="89" y="165" width="30" height="25" fill="#d5f5e3" rx="3" stroke="#27ae60"/>
    <text x="104" y="182" text-anchor="middle" font-family="Arial, sans-serif" font-size="11" fill="#1e8449">12</text>
    <rect x="123" y="165" width="30" height="25" fill="#d5f5e3" rx="3" stroke="#27ae60"/>
    <text x="138" y="182" text-anchor="middle" font-family="Arial, sans-serif" font-size="11" fill="#1e8449">13</text>
    
    <text x="185" y="182" font-family="Consolas, monospace" font-size="9" fill="#555">= Ergebnis</text>
  </g>
  
  <g filter="url(#shadow)">
    <rect x="275" y="60" width="250" height="155" rx="8" fill="white" stroke="#27ae60" stroke-width="2"/>
    <rect x="275" y="60" width="250" height="25" rx="8" fill="url(#greenGrad)"/>
    <rect x="275" y="78" width="250" height="7" fill="url(#greenGrad)"/>
    <text x="400" y="78" text-anchor="middle" font-family="Arial, sans-serif" font-size="11" font-weight="bold" fill="white">Spalte + Zeile → Matrix</text>
    
    <rect x="290" y="100" width="25" height="20" fill="#e3f2fd" rx="2" stroke="#3498db"/>
    <text x="302.5" y="114" text-anchor="middle" font-family="Arial, sans-serif" font-size="9" fill="#2980b9">1</text>
    <rect x="290" y="124" width="25" height="20" fill="#e3f2fd" rx="2" stroke="#3498db"/>
    <text x="302.5" y="138" text-anchor="middle" font-family="Arial, sans-serif" font-size="9" fill="#2980b9">2</text>
    <rect x="290" y="148" width="25" height="20" fill="#e3f2fd" rx="2" stroke="#3498db"/>
    <text x="302.5" y="162" text-anchor="middle" font-family="Arial, sans-serif" font-size="9" fill="#2980b9">3</text>
    <text x="302.5" y="185" text-anchor="middle" font-family="Arial, sans-serif" font-size="8" fill="#666">(3,1)</text>
    
    <text x="330" y="135" text-anchor="middle" font-family="Arial, sans-serif" font-size="16" fill="#333">+</text>
    
    <rect x="345" y="100" width="20" height="20" fill="#fef9e7" rx="2" stroke="#f39c12"/>
    <text x="355" y="114" text-anchor="middle" font-family="Arial, sans-serif" font-size="9" fill="#d68910">10</text>
    <rect x="369" y="100" width="20" height="20" fill="#fef9e7" rx="2" stroke="#f39c12"/>
    <text x="379" y="114" text-anchor="middle" font-family="Arial, sans-serif" font-size="9" fill="#d68910">20</text>
    <rect x="393" y="100" width="20" height="20" fill="#fef9e7" rx="2" stroke="#f39c12"/>
    <text x="403" y="114" text-anchor="middle" font-family="Arial, sans-serif" font-size="9" fill="#d68910">30</text>
    <text x="379" y="133" text-anchor="middle" font-family="Arial, sans-serif" font-size="8" fill="#666">(1,3)</text>
    
    <text x="430" y="135" text-anchor="middle" font-family="Arial, sans-serif" font-size="12" fill="#333">=</text>
    
    <rect x="450" y="100" width="20" height="20" fill="#d5f5e3" rx="2" stroke="#27ae60"/>
    <text x="460" y="114" text-anchor="middle" font-family="Arial, sans-serif" font-size="8" fill="#1e8449">11</text>
    <rect x="472" y="100" width="20" height="20" fill="#d5f5e3" rx="2" stroke="#27ae60"/>
    <text x="482" y="114" text-anchor="middle" font-family="Arial, sans-serif" font-size="8" fill="#1e8449">21</text>
    <rect x="494" y="100" width="20" height="20" fill="#d5f5e3" rx="2" stroke="#27ae60"/>
    <text x="504" y="114" text-anchor="middle" font-family="Arial, sans-serif" font-size="8" fill="#1e8449">31</text>
    
    <rect x="450" y="124" width="20" height="20" fill="#d5f5e3" rx="2" stroke="#27ae60"/>
    <text x="460" y="138" text-anchor="middle" font-family="Arial, sans-serif" font-size="8" fill="#1e8449">12</text>
    <rect x="472" y="124" width="20" height="20" fill="#d5f5e3" rx="2" stroke="#27ae60"/>
    <text x="482" y="138" text-anchor="middle" font-family="Arial, sans-serif" font-size="8" fill="#1e8449">22</text>
    <rect x="494" y="124" width="20" height="20" fill="#d5f5e3" rx="2" stroke="#27ae60"/>
    <text x="504" y="138" text-anchor="middle" font-family="Arial, sans-serif" font-size="8" fill="#1e8449">32</text>
    
    <rect x="450" y="148" width="20" height="20" fill="#d5f5e3" rx="2" stroke="#27ae60"/>
    <text x="460" y="162" text-anchor="middle" font-family="Arial, sans-serif" font-size="8" fill="#1e8449">13</text>
    <rect x="472" y="148" width="20" height="20" fill="#d5f5e3" rx="2" stroke="#27ae60"/>
    <text x="482" y="162" text-anchor="middle" font-family="Arial, sans-serif" font-size="8" fill="#1e8449">23</text>
    <rect x="494" y="148" width="20" height="20" fill="#d5f5e3" rx="2" stroke="#27ae60"/>
    <text x="504" y="162" text-anchor="middle" font-family="Arial, sans-serif" font-size="8" fill="#1e8449">33</text>
    
    <text x="482" y="185" text-anchor="middle" font-family="Arial, sans-serif" font-size="8" fill="#666">(3,3)</text>
  </g>
  
  <g filter="url(#shadow)">
    <rect x="535" y="60" width="250" height="155" rx="8" fill="white" stroke="#e74c3c" stroke-width="2"/>
    <rect x="535" y="60" width="250" height="25" rx="8" fill="#e74c3c"/>
    <rect x="535" y="78" width="250" height="7" fill="#e74c3c"/>
    <text x="660" y="78" text-anchor="middle" font-family="Arial, sans-serif" font-size="11" font-weight="bold" fill="white">⚠️ Inkompatibel!</text>
    
    <rect x="550" y="105" width="25" height="25" fill="#e3f2fd" rx="2" stroke="#3498db"/>
    <text x="562.5" y="122" text-anchor="middle" font-family="Arial, sans-serif" font-size="10" fill="#2980b9">1</text>
    <rect x="577" y="105" width="25" height="25" fill="#e3f2fd" rx="2" stroke="#3498db"/>
    <text x="589.5" y="122" text-anchor="middle" font-family="Arial, sans-serif" font-size="10" fill="#2980b9">2</text>
    <rect x="604" y="105" width="25" height="25" fill="#e3f2fd" rx="2" stroke="#3498db"/>
    <text x="616.5" y="122" text-anchor="middle" font-family="Arial, sans-serif" font-size="10" fill="#2980b9">3</text>
    <text x="589.5" y="145" text-anchor="middle" font-family="Arial, sans-serif" font-size="8" fill="#666">shape: (3,)</text>
    
    <text x="650" y="122" text-anchor="middle" font-family="Arial, sans-serif" font-size="16" fill="#333">+</text>
    
    <rect x="670" y="105" width="20" height="25" fill="#fef9e7" rx="2" stroke="#f39c12"/>
    <text x="680" y="122" text-anchor="middle" font-family="Arial, sans-serif" font-size="9" fill="#d68910">1</text>
    <rect x="694" y="105" width="20" height="25" fill="#fef9e7" rx="2" stroke="#f39c12"/>
    <text x="704" y="122" text-anchor="middle" font-family="Arial, sans-serif" font-size="9" fill="#d68910">2</text>
    <rect x="718" y="105" width="20" height="25" fill="#fef9e7" rx="2" stroke="#f39c12"/>
    <text x="728" y="122" text-anchor="middle" font-family="Arial, sans-serif" font-size="9" fill="#d68910">3</text>
    <rect x="742" y="105" width="20" height="25" fill="#fef9e7" rx="2" stroke="#f39c12"/>
    <text x="752" y="122" text-anchor="middle" font-family="Arial, sans-serif" font-size="9" fill="#d68910">4</text>
    <text x="716" y="145" text-anchor="middle" font-family="Arial, sans-serif" font-size="8" fill="#666">shape: (4,)</text>
    
    <rect x="560" y="160" width="200" height="40" fill="#fdedec" rx="4" stroke="#e74c3c"/>
    <text x="660" y="178" text-anchor="middle" font-family="Arial, sans-serif" font-size="9" fill="#c0392b">ValueError:</text>
    <text x="660" y="192" text-anchor="middle" font-family="Arial, sans-serif" font-size="8" fill="#c0392b">shapes (3,) and (4,) not aligned</text>
  </g>
  
  <g filter="url(#shadow)">
    <rect x="30" y="235" width="740" height="150" rx="8" fill="white" stroke="#ddd" stroke-width="1"/>
    <text x="400" y="260" text-anchor="middle" font-family="Arial, sans-serif" font-size="14" font-weight="bold" fill="#333">Broadcasting-Regeln</text>
    
    <rect x="50" y="280" width="220" height="85" rx="4" fill="#ebf5fb" stroke="#3498db"/>
    <text x="160" y="300" text-anchor="middle" font-family="Arial, sans-serif" font-size="11" font-weight="bold" fill="#2980b9">Regel 1</text>
    <text x="60" y="320" font-family="Arial, sans-serif" font-size="9" fill="#333">Dimensionen werden von rechts</text>
    <text x="60" y="335" font-family="Arial, sans-serif" font-size="9" fill="#333">nach links verglichen</text>
    <text x="60" y="355" font-family="Consolas, monospace" font-size="8" fill="#666">(3,4) + (4,) → OK</text>
    
    <rect x="290" y="280" width="220" height="85" rx="4" fill="#d5f5e3" stroke="#27ae60"/>
    <text x="400" y="300" text-anchor="middle" font-family="Arial, sans-serif" font-size="11" font-weight="bold" fill="#1e8449">Regel 2</text>
    <text x="300" y="320" font-family="Arial, sans-serif" font-size="9" fill="#333">Dimensionen sind kompatibel wenn:</text>
    <text x="300" y="335" font-family="Arial, sans-serif" font-size="9" fill="#333">• Sie gleich sind, ODER</text>
    <text x="300" y="350" font-family="Arial, sans-serif" font-size="9" fill="#333">• Eine davon ist 1</text>
    
    <rect x="530" y="280" width="220" height="85" rx="4" fill="#fef9e7" stroke="#f39c12"/>
    <text x="640" y="300" text-anchor="middle" font-family="Arial, sans-serif" font-size="11" font-weight="bold" fill="#d68910">Regel 3</text>
    <text x="540" y="320" font-family="Arial, sans-serif" font-size="9" fill="#333">Dimension mit Größe 1 wird</text>
    <text x="540" y="335" font-family="Arial, sans-serif" font-size="9" fill="#333">"gestreckt" auf die andere Größe</text>
    <text x="540" y="355" font-family="Consolas, monospace" font-size="8" fill="#666">(3,1) + (1,4) → (3,4)</text>
  </g>
</svg>