<svg xmlns="http://www.w3.org/2000/svg" viewBox="0 0 800 380">
  <defs>
    <linearGradient id="blueGrad" x1="0%" y1="0%" x2="0%" y2="100%">
      <stop offset="0%" style="stop-color:#3498db;stop-opacity:1" />
      <stop offset="100%" style="stop-color:#2980b9;stop-opacity:1" />
    </linearGradient>
    <linearGradient id="greenGrad" x1="0%" y1="0%" x2="0%" y2="100%">
      <stop offset="0%" style="stop-color:#27ae60;stop-opacity:1" />
      <stop offset="100%" style="stop-color:#1e8449;stop-opacity:1" />
    </linearGradient>
    <linearGradient id="orangeGrad" x1="0%" y1="0%" x2="0%" y2="100%">
      <stop offset="0%" style="stop-color:#e67e22;stop-opacity:1" />
      <stop offset="100%" style="stop-color:#d35400;stop-opacity:1" />
    </linearGradient>
    <filter id="shadow" x="-20%" y="-20%" width="140%" height="140%">
      <feDropShadow dx="2" dy="2" stdDeviation="3" flood-opacity="0.15"/>
    </filter>
    <marker id="arrow" markerWidth="10" markerHeight="10" refX="9" refY="3" orient="auto">
      <path d="M0,0 L0,6 L9,3 z" fill="#555"/>
    </marker>
  </defs>
  
  <rect width="800" height="380" fill="#f8f9fa"/>
  
  <!-- Titel -->
  <text x="400" y="30" text-anchor="middle" font-family="Arial, sans-serif" font-size="22" font-weight="bold" fill="#333">pd.concat() - DataFrames verbinden</text>
  
  <!-- Vertikales Concat (axis=0) -->
  <g filter="url(#shadow)">
    <rect x="30" y="55" width="350" height="320" rx="8" fill="white" stroke="#3498db" stroke-width="2"/>
    <rect x="30" y="55" width="350" height="30" rx="8" fill="url(#blueGrad)"/>
    <rect x="30" y="78" width="350" height="7" fill="url(#blueGrad)"/>
    <text x="205" y="76" text-anchor="middle" font-family="Arial, sans-serif" font-size="12" font-weight="bold" fill="white">axis=0 (untereinander / vertikal)</text>
    
    <!-- DataFrame 1 -->
    <text x="60" y="110" font-family="Arial, sans-serif" font-size="11" font-weight="bold" fill="#555">df1:</text>
    <rect x="55" y="120" width="45" height="22" fill="#ebf5fb" stroke="#3498db" rx="2"/>
    <text x="77" y="135" text-anchor="middle" font-family="Arial, sans-serif" font-size="9" fill="#555">A</text>
    <rect x="104" y="120" width="45" height="22" fill="#ebf5fb" stroke="#3498db" rx="2"/>
    <text x="126" y="135" text-anchor="middle" font-family="Arial, sans-serif" font-size="9" fill="#555">B</text>
    
    <rect x="55" y="146" width="45" height="22" fill="#d5f5e3" stroke="#27ae60" rx="2"/>
    <text x="77" y="161" text-anchor="middle" font-family="Arial, sans-serif" font-size="9" fill="#1e8449">1</text>
    <rect x="104" y="146" width="45" height="22" fill="#d5f5e3" stroke="#27ae60" rx="2"/>
    <text x="126" y="161" text-anchor="middle" font-family="Arial, sans-serif" font-size="9" fill="#1e8449">2</text>
    
    <rect x="55" y="172" width="45" height="22" fill="#d5f5e3" stroke="#27ae60" rx="2"/>
    <text x="77" y="187" text-anchor="middle" font-family="Arial, sans-serif" font-size="9" fill="#1e8449">3</text>
    <rect x="104" y="172" width="45" height="22" fill="#d5f5e3" stroke="#27ae60" rx="2"/>
    <text x="126" y="187" text-anchor="middle" font-family="Arial, sans-serif" font-size="9" fill="#1e8449">4</text>
    
    <!-- Plus -->
    <text x="170" y="165" font-family="Arial, sans-serif" font-size="24" fill="#333">+</text>
    
    <!-- DataFrame 2 -->
    <text x="200" y="110" font-family="Arial, sans-serif" font-size="11" font-weight="bold" fill="#555">df2:</text>
    <rect x="195" y="120" width="45" height="22" fill="#ebf5fb" stroke="#3498db" rx="2"/>
    <text x="217" y="135" text-anchor="middle" font-family="Arial, sans-serif" font-size="9" fill="#555">A</text>
    <rect x="244" y="120" width="45" height="22" fill="#ebf5fb" stroke="#3498db" rx="2"/>
    <text x="266" y="135" text-anchor="middle" font-family="Arial, sans-serif" font-size="9" fill="#555">B</text>
    
    <rect x="195" y="146" width="45" height="22" fill="#fef9e7" stroke="#f39c12" rx="2"/>
    <text x="217" y="161" text-anchor="middle" font-family="Arial, sans-serif" font-size="9" fill="#d68910">5</text>
    <rect x="244" y="146" width="45" height="22" fill="#fef9e7" stroke="#f39c12" rx="2"/>
    <text x="266" y="161" text-anchor="middle" font-family="Arial, sans-serif" font-size="9" fill="#d68910">6</text>
    
    <rect x="195" y="172" width="45" height="22" fill="#fef9e7" stroke="#f39c12" rx="2"/>
    <text x="217" y="187" text-anchor="middle" font-family="Arial, sans-serif" font-size="9" fill="#d68910">7</text>
    <rect x="244" y="172" width="45" height="22" fill="#fef9e7" stroke="#f39c12" rx="2"/>
    <text x="266" y="187" text-anchor="middle" font-family="Arial, sans-serif" font-size="9" fill="#d68910">8</text>
    
    <!-- Pfeil -->
    <path d="M 190 210 L 190 230" stroke="#555" stroke-width="2" fill="none" marker-end="url(#arrow)"/>
    <text x="230" y="227" font-family="Consolas, monospace" font-size="9" fill="#666">pd.concat([df1, df2], axis=0)</text>
    
    <!-- Ergebnis -->
    <text x="60" y="260" font-family="Arial, sans-serif" font-size="11" font-weight="bold" fill="#555">Ergebnis:</text>
    <rect x="130" y="245" width="45" height="20" fill="#ebf5fb" stroke="#3498db" rx="2"/>
    <text x="152" y="259" text-anchor="middle" font-family="Arial, sans-serif" font-size="9" fill="#555">A</text>
    <rect x="179" y="245" width="45" height="20" fill="#ebf5fb" stroke="#3498db" rx="2"/>
    <text x="201" y="259" text-anchor="middle" font-family="Arial, sans-serif" font-size="9" fill="#555">B</text>
    
    <rect x="130" y="269" width="45" height="20" fill="#d5f5e3" stroke="#27ae60" rx="2"/>
    <text x="152" y="283" text-anchor="middle" font-family="Arial, sans-serif" font-size="8" fill="#1e8449">1</text>
    <rect x="179" y="269" width="45" height="20" fill="#d5f5e3" stroke="#27ae60" rx="2"/>
    <text x="201" y="283" text-anchor="middle" font-family="Arial, sans-serif" font-size="8" fill="#1e8449">2</text>
    
    <rect x="130" y="293" width="45" height="20" fill="#d5f5e3" stroke="#27ae60" rx="2"/>
    <text x="152" y="307" text-anchor="middle" font-family="Arial, sans-serif" font-size="8" fill="#1e8449">3</text>
    <rect x="179" y="293" width="45" height="20" fill="#d5f5e3" stroke="#27ae60" rx="2"/>
    <text x="201" y="307" text-anchor="middle" font-family="Arial, sans-serif" font-size="8" fill="#1e8449">4</text>
    
    <rect x="130" y="317" width="45" height="20" fill="#fef9e7" stroke="#f39c12" rx="2"/>
    <text x="152" y="331" text-anchor="middle" font-family="Arial, sans-serif" font-size="8" fill="#d68910">5</text>
    <rect x="179" y="317" width="45" height="20" fill="#fef9e7" stroke="#f39c12" rx="2"/>
    <text x="201" y="331" text-anchor="middle" font-family="Arial, sans-serif" font-size="8" fill="#d68910">6</text>
    
    <rect x="130" y="341" width="45" height="20" fill="#fef9e7" stroke="#f39c12" rx="2"/>
    <text x="152" y="355" text-anchor="middle" font-family="Arial, sans-serif" font-size="8" fill="#d68910">7</text>
    <rect x="179" y="341" width="45" height="20" fill="#fef9e7" stroke="#f39c12" rx="2"/>
    <text x="201" y="355" text-anchor="middle" font-family="Arial, sans-serif" font-size="8" fill="#d68910">8</text>
    
    <!-- Brace -->
    <text x="250" y="295" font-family="Arial, sans-serif" font-size="70" fill="#999">}</text>
    <text x="300" y="295" font-family="Arial, sans-serif" font-size="9" fill="#666">Zeilen</text>
    <text x="300" y="310" font-family="Arial, sans-serif" font-size="9" fill="#666">werden</text>
    <text x="300" y="325" font-family="Arial, sans-serif" font-size="9" fill="#666">angehängt</text>
  </g>
  
  <!-- Horizontales Concat (axis=1) -->
  <g filter="url(#shadow)">
    <rect x="420" y="55" width="350" height="320" rx="8" fill="white" stroke="#27ae60" stroke-width="2"/>
    <rect x="420" y="55" width="350" height="30" rx="8" fill="url(#greenGrad)"/>
    <rect x="420" y="78" width="350" height="7" fill="url(#greenGrad)"/>
    <text x="595" y="76" text-anchor="middle" font-family="Arial, sans-serif" font-size="12" font-weight="bold" fill="white">axis=1 (nebeneinander / horizontal)</text>
    
    <!-- DataFrame 1 -->
    <text x="445" y="110" font-family="Arial, sans-serif" font-size="11" font-weight="bold" fill="#555">df1:</text>
    <rect x="440" y="120" width="40" height="22" fill="#ebf5fb" stroke="#3498db" rx="2"/>
    <text x="460" y="135" text-anchor="middle" font-family="Arial, sans-serif" font-size="9" fill="#555">A</text>
    
    <rect x="440" y="146" width="40" height="22" fill="#d5f5e3" stroke="#27ae60" rx="2"/>
    <text x="460" y="161" text-anchor="middle" font-family="Arial, sans-serif" font-size="9" fill="#1e8449">1</text>
    
    <rect x="440" y="172" width="40" height="22" fill="#d5f5e3" stroke="#27ae60" rx="2"/>
    <text x="460" y="187" text-anchor="middle" font-family="Arial, sans-serif" font-size="9" fill="#1e8449">2</text>
    
    <!-- Plus -->
    <text x="505" y="165" font-family="Arial, sans-serif" font-size="24" fill="#333">+</text>
    
    <!-- DataFrame 2 -->
    <text x="545" y="110" font-family="Arial, sans-serif" font-size="11" font-weight="bold" fill="#555">df2:</text>
    <rect x="540" y="120" width="40" height="22" fill="#ebf5fb" stroke="#3498db" rx="2"/>
    <text x="560" y="135" text-anchor="middle" font-family="Arial, sans-serif" font-size="9" fill="#555">B</text>
    
    <rect x="540" y="146" width="40" height="22" fill="#fef9e7" stroke="#f39c12" rx="2"/>
    <text x="560" y="161" text-anchor="middle" font-family="Arial, sans-serif" font-size="9" fill="#d68910">3</text>
    
    <rect x="540" y="172" width="40" height="22" fill="#fef9e7" stroke="#f39c12" rx="2"/>
    <text x="560" y="187" text-anchor="middle" font-family="Arial, sans-serif" font-size="9" fill="#d68910">4</text>
    
    <!-- Pfeil -->
    <path d="M 540 210 L 540 230" stroke="#555" stroke-width="2" fill="none" marker-end="url(#arrow)"/>
    <text x="585" y="227" font-family="Consolas, monospace" font-size="9" fill="#666">pd.concat([df1, df2], axis=1)</text>
    
    <!-- Ergebnis -->
    <text x="445" y="260" font-family="Arial, sans-serif" font-size="11" font-weight="bold" fill="#555">Ergebnis:</text>
    <rect x="520" y="245" width="45" height="22" fill="#ebf5fb" stroke="#3498db" rx="2"/>
    <text x="542" y="260" text-anchor="middle" font-family="Arial, sans-serif" font-size="9" fill="#555">A</text>
    <rect x="569" y="245" width="45" height="22" fill="#ebf5fb" stroke="#3498db" rx="2"/>
    <text x="591" y="260" text-anchor="middle" font-family="Arial, sans-serif" font-size="9" fill="#555">B</text>
    
    <rect x="520" y="271" width="45" height="22" fill="#d5f5e3" stroke="#27ae60" rx="2"/>
    <text x="542" y="286" text-anchor="middle" font-family="Arial, sans-serif" font-size="9" fill="#1e8449">1</text>
    <rect x="569" y="271" width="45" height="22" fill="#fef9e7" stroke="#f39c12" rx="2"/>
    <text x="591" y="286" text-anchor="middle" font-family="Arial, sans-serif" font-size="9" fill="#d68910">3</text>
    
    <rect x="520" y="297" width="45" height="22" fill="#d5f5e3" stroke="#27ae60" rx="2"/>
    <text x="542" y="312" text-anchor="middle" font-family="Arial, sans-serif" font-size="9" fill="#1e8449">2</text>
    <rect x="569" y="297" width="45" height="22" fill="#fef9e7" stroke="#f39c12" rx="2"/>
    <text x="591" y="312" text-anchor="middle" font-family="Arial, sans-serif" font-size="9" fill="#d68910">4</text>
    
    <!-- Annotation -->
    <text x="640" y="285" font-family="Arial, sans-serif" font-size="9" fill="#666">Spalten</text>
    <text x="640" y="300" font-family="Arial, sans-serif" font-size="9" fill="#666">werden</text>
    <text x="640" y="315" font-family="Arial, sans-serif" font-size="9" fill="#666">angehängt</text>
    <path d="M 618 280 L 640 280" stroke="#999" stroke-width="1.5"/>
    <path d="M 618 305 L 640 305" stroke="#999" stroke-width="1.5"/>
  </g>
</svg>